<svg xmlns="http://www.w3.org/2000/svg" width="30" height="32"><path d="M15.031 31.891c-1.002 0-2.018-.224-2.81-.688l-8.222-4.739C.65 24.207.441 23.863.441 20.32v-8.641c0-3.543.194-3.887 3.483-6.114L12.206.781c1.57-.912 4.036-.912 5.606 0l8.252 4.754c3.349 2.257 3.558 2.601 3.558 6.144v8.626c0 3.543-.194 3.887-3.483 6.114l-8.282 4.784c-.807.463-1.824.688-2.825.688zm0-29.54c-.628 0-1.241.12-1.674.374L5.135 7.479C2.698 9.123 2.698 9.123 2.698 11.68v8.626c0 2.556 0 2.556 2.497 4.246l8.162 4.709c.882.508 2.482.508 3.364 0l8.222-4.754c2.422-1.645 2.422-1.645 2.422-4.201V11.68c0-2.556 0-2.556-2.497-4.246l-8.162-4.709c-.434-.254-1.046-.374-1.674-.374z"/><path d="M15.03 21.606c-3.095 0-5.606-2.511-5.606-5.606s2.512-5.606 5.606-5.606c3.095 0 5.606 2.511 5.606 5.606s-2.511 5.606-5.606 5.606zm0-8.97c-1.854 0-3.364 1.51-3.364 3.364s1.51 3.364 3.364 3.364c1.854 0 3.364-1.51 3.364-3.364s-1.51-3.364-3.364-3.364z"/></svg>