<svg xmlns="http://www.w3.org/2000/svg" width="32" height="32"><path d="M16 31.637a3.344 3.344 0 01-2.415-1.003l-2.211-2.211c-.175-.175-.64-.364-.873-.364H7.359a3.414 3.414 0 01-3.418-3.418v-3.142c0-.233-.189-.698-.364-.873l-2.211-2.211C.726 17.775.362 16.917.362 16s.349-1.775 1.004-2.415l2.211-2.211c.175-.175.364-.64.364-.873V7.359a3.414 3.414 0 013.418-3.418h3.142c.233 0 .698-.189.873-.364l2.211-2.211c1.28-1.28 3.549-1.28 4.829 0l2.211 2.211c.175.175.64.364.873.364h3.142a3.414 3.414 0 013.418 3.418v3.142c0 .233.189.698.364.873l2.211 2.211c.64.64 1.004 1.498 1.004 2.415s-.349 1.775-1.004 2.415l-2.211 2.211c-.175.175-.364.64-.364.873v3.142a3.414 3.414 0 01-3.418 3.418h-3.142c-.233 0-.698.189-.873.364l-2.211 2.211a3.339 3.339 0 01-2.415 1.003zM5.12 19.084c.582.582 1.004 1.6 1.004 2.415v3.142c0 .684.553 1.236 1.236 1.236h3.142c.815 0 1.833.422 2.415 1.003l2.211 2.211c.465.465 1.28.465 1.745 0l2.211-2.211c.582-.582 1.6-1.003 2.415-1.003h3.142c.684 0 1.236-.553 1.236-1.236v-3.142c0-.815.422-1.833 1.004-2.415l2.211-2.211c.233-.233.364-.538.364-.873s-.131-.64-.364-.873l-2.211-2.211c-.582-.582-1.004-1.6-1.004-2.415V7.359c0-.684-.553-1.236-1.236-1.236h-3.142c-.815 0-1.833-.422-2.415-1.004l-2.211-2.211c-.465-.465-1.28-.465-1.745 0l-2.211 2.211c-.582.582-1.6 1.004-2.415 1.004H7.36c-.684 0-1.236.553-1.236 1.236v3.142c0 .815-.422 1.833-1.004 2.415l-2.211 2.211c-.233.233-.364.538-.364.873s.131.64.364.873l2.211 2.211z"/><path d="M20.364 21.818c-.815 0-1.469-.655-1.469-1.455s.655-1.455 1.455-1.455 1.455.655 1.455 1.455-.64 1.455-1.44 1.455zm-8.713-8.727c-.815 0-1.469-.655-1.469-1.455s.655-1.455 1.455-1.455 1.455.655 1.455 1.455-.64 1.455-1.44 1.455zm-.015 8.363a1.08 1.08 0 01-.771-.32 1.097 1.097 0 010-1.542l8.727-8.727c.422-.422 1.12-.422 1.542 0s.422 1.12 0 1.542l-8.727 8.727a1.08 1.08 0 01-.771.32z"/></svg>