<svg xmlns="http://www.w3.org/2000/svg" width="32" height="32"><path d="M3.047 3.047C4.988 1.106 7.893.364 11.637.364h8.727c3.744 0 6.649.742 8.59 2.683s2.683 4.846 2.683 8.59v8.727c0 3.744-.742 6.649-2.683 8.59s-4.846 2.683-8.59 2.683h-8.727c-3.744 0-6.649-.742-8.59-2.683S.364 24.108.364 20.364v-8.727c0-3.744.742-6.649 2.683-8.59zM4.59 4.59c-1.332 1.332-2.044 3.518-2.044 7.047v8.727c0 3.529.712 5.715 2.044 7.047s3.518 2.044 7.047 2.044h8.727c3.529 0 5.715-.712 7.047-2.044s2.044-3.518 2.044-7.047v-8.727c0-3.529-.712-5.715-2.044-7.047s-3.518-2.044-7.047-2.044h-8.727c-3.529 0-5.715.712-7.047 2.044z"/><path d="M21.456 10.563c1.924 1.912 1.931 5.061-.004 7.009a4.941 4.941 0 01-4.98 1.228 1.089 1.089 0 00-1.097.268l-3.767 3.753-.009.009-.011.007a.603.603 0 01-.211.068l-.036.002-1.766-.235c-.004-.001-.063-.016-.139-.093s-.104-.151-.11-.179l-.23-1.728-.001-.006.002-.02a.779.779 0 01.103-.273l3.732-3.732a1.09 1.09 0 00.271-1.092 4.974 4.974 0 011.227-4.988c1.929-1.929 5.08-1.932 7.027.002zm1.538-1.548c-2.795-2.778-7.324-2.781-10.108.002a7.144 7.144 0 00-1.937 6.519l-3.334 3.335c-.267.282-.45.637-.558.961a2.48 2.48 0 00-.122 1.135l.232 1.737.003.022c.084.544.362 1.026.711 1.381.348.354.839.654 1.419.728l1.735.231c.401.057.804-.006 1.136-.115.326-.107.697-.295.986-.594l3.317-3.304a7.12 7.12 0 006.523-1.94l.002-.002c2.777-2.794 2.783-7.324-.005-10.095z"/><path d="M11.742 20.199a1.091 1.091 0 011.543.009l1.236 1.251a1.091 1.091 0 01-1.552 1.534l-1.236-1.251a1.091 1.091 0 01.009-1.543zm4.832-6.09c0-.803.651-1.455 1.455-1.455h.013a1.455 1.455 0 010 2.91h-.013a1.455 1.455 0 01-1.455-1.455z"/></svg>