<svg xmlns="http://www.w3.org/2000/svg" width="34" height="32"><path d="M3.964 21.502c.631 0 1.143.512 1.143 1.143 0 1.769 1.68 3.337 4.312 3.337 2.612 0 4.297-1.58 4.297-3.337a1.143 1.143 0 012.286 0v3.093c0 3.396-3.104 5.882-6.583 5.882-3.475 0-6.598-2.482-6.598-5.882v-3.093c0-.631.512-1.143 1.143-1.143zm1.53 5.707c.656 1.206 2.095 2.125 3.926 2.125 1.832 0 3.267-.921 3.917-2.131-1.127.689-2.505 1.065-3.917 1.065-1.416 0-2.797-.373-3.926-1.058z"/><path d="M9.387 14.872c-1.247 0-2.331.427-3.102 1.103l-.001.001c-.762.667-1.194 1.54-1.194 2.477 0 .54.149 1.038.413 1.479.651 1.055 2.08 1.858 3.899 1.858 1.826 0 3.25-.793 3.898-1.856.265-.442.414-.941.414-1.481 0-.94-.434-1.817-1.204-2.459l-.014-.012c-.78-.672-1.87-1.11-3.109-1.11zm-4.609-.615c1.21-1.061 2.839-1.67 4.609-1.67 1.775 0 3.394.626 4.594 1.658C15.218 15.279 16 16.777 16 18.454c0 .982-.276 1.884-.742 2.66l-.004.006c-1.151 1.892-3.414 2.956-5.853 2.956-2.445 0-4.702-1.084-5.85-2.952l-.006-.01a5.137 5.137 0 01-.742-2.66c0-1.683.786-3.157 1.975-4.197l-.001.001z"/><path d="M9.42 14.857c-2.542 0-4.312 1.752-4.312 3.596v4.19c0 1.754 1.696 3.337 4.312 3.337 2.615 0 4.297-1.567 4.297-3.337v-4.19c0-.94-.435-1.826-1.191-2.489-.78-.67-1.869-1.107-3.106-1.107zm-6.599 3.596c0-3.398 3.106-5.882 6.598-5.882 1.778 0 3.4.629 4.601 1.664l.007.006c1.192 1.043 1.975 2.533 1.975 4.212v4.19c0 3.472-3.194 5.623-6.583 5.623-3.387 0-6.598-2.165-6.598-5.623v-4.19zm24.486-5.196c-.547 0-1.029.212-1.376.569l-.021.021a1.92 1.92 0 00-.575 1.558l.001.013c.081.968 1.011 1.802 2.152 1.802h2.961a.42.42 0 00.407-.411V13.67a.42.42 0 00-.407-.411h-3.143zm-3.003-1.036a4.182 4.182 0 013.003-1.249h3.17l.041.001c1.452.052 2.626 1.227 2.626 2.696v3.139c0 1.469-1.174 2.644-2.626 2.696l-.041.001H27.49c-2.148 0-4.233-1.571-4.43-3.891a4.202 4.202 0 011.244-3.393z"/><path d="M9.143 3.429c-.372 0-.725.027-1.06.078l-.031.004c-1.687.212-3.014.934-3.922 2-.911 1.068-1.462 2.554-1.462 4.394v3.048a1.143 1.143 0 01-2.286 0V9.905c0-2.305.698-4.339 2.008-5.877s3.17-2.505 5.361-2.783a9.224 9.224 0 011.392-.102h13.714c.411 0 .855.015 1.302.087 2.21.263 4.091 1.225 5.418 2.763 1.33 1.542 2.041 3.589 2.041 5.912v2.21c0 .631-.512 1.143-1.143 1.143h-3.17c-.547 0-1.028.212-1.375.569l-.021.021a1.92 1.92 0 00-.575 1.558l.001.013c.081.968 1.011 1.802 2.153 1.802h2.987c.631 0 1.143.512 1.143 1.143v2.21c0 2.545-.854 4.755-2.43 6.332s-3.787 2.43-6.332 2.43h-3.81a1.143 1.143 0 010-2.286h3.81c2.026 0 3.626-.67 4.716-1.76s1.76-2.69 1.76-4.716v-1.067h-1.844c-2.148 0-4.233-1.571-4.43-3.891a4.202 4.202 0 011.244-3.393 4.18 4.18 0 013.003-1.249h2.027V9.907c0-1.852-.561-3.347-1.486-4.419-.923-1.069-2.27-1.79-3.979-1.989l-.056-.008a5.823 5.823 0 00-.955-.061H9.142z"/></svg>