<!-- Generated by IcoMoon.io -->
<svg version="1.1" xmlns="http://www.w3.org/2000/svg" width="32" height="32" viewBox="0 0 32 32">
<path d="M20.364 31.636h-8.727c-7.898 0-11.273-3.375-11.273-11.273v-8.727c0-7.898 3.375-11.273 11.273-11.273h8.727c7.898 0 11.273 3.375 11.273 11.273v8.727c0 7.898-3.375 11.273-11.273 11.273zM11.636 2.545c-6.705 0-9.091 2.385-9.091 9.091v8.727c0 6.705 2.385 9.091 9.091 9.091h8.727c6.705 0 9.091-2.385 9.091-9.091v-8.727c0-6.705-2.385-9.091-9.091-9.091h-8.727z"></path>
<path d="M16.001 17.57c-0.189 0-0.378-0.044-0.553-0.145l-7.709-4.451c-0.524-0.305-0.698-0.975-0.393-1.484 0.305-0.524 0.975-0.698 1.484-0.393l7.156 4.145 7.113-4.116c0.524-0.305 1.193-0.116 1.484 0.393s0.116 1.193-0.393 1.484l-7.651 4.422c-0.16 0.087-0.349 0.145-0.538 0.145z"></path>
<path d="M16 25.484c-0.596 0-1.091-0.495-1.091-1.091v-7.913c0-0.596 0.495-1.091 1.091-1.091s1.091 0.495 1.091 1.091v7.913c0 0.596-0.495 1.091-1.091 1.091z"></path>
<path d="M16 25.818c-0.844 0-1.673-0.189-2.342-0.553l-4.655-2.589c-1.396-0.771-2.473-2.618-2.473-4.218v-4.931c0-1.585 1.091-3.433 2.473-4.218l4.655-2.589c1.338-0.742 3.345-0.742 4.684 0l4.655 2.589c1.396 0.771 2.473 2.618 2.473 4.218v4.931c0 1.585-1.091 3.433-2.473 4.218l-4.655 2.589c-0.669 0.378-1.498 0.553-2.342 0.553zM16 8.363c-0.48 0-0.945 0.087-1.28 0.276l-4.654 2.589c-0.713 0.393-1.353 1.498-1.353 2.298v4.931c0 0.815 0.64 1.905 1.353 2.298l4.654 2.589c0.669 0.378 1.891 0.378 2.56 0l4.655-2.589c0.713-0.393 1.353-1.498 1.353-2.298v-4.931c0-0.815-0.64-1.905-1.353-2.298l-4.655-2.589c-0.335-0.189-0.8-0.276-1.28-0.276z"></path>
</svg>
