<!-- Generated by IcoMoon.io -->
<svg version="1.1" xmlns="http://www.w3.org/2000/svg" width="32" height="32" viewBox="0 0 32 32">
<path d="M10.182 31.011c-0.407 0-0.829-0.102-1.207-0.305-0.829-0.436-1.338-1.309-1.338-2.24v-2.065c-4.393-0.451-7.273-3.68-7.273-8.306v-8.727c0-5.004 3.36-8.364 8.364-8.364h14.545c5.004 0 8.364 3.36 8.364 8.364v8.727c0 5.004-3.36 8.364-8.364 8.364h-5.484l-6.196 4.131c-0.422 0.276-0.916 0.422-1.411 0.422zM8.727 3.171c-3.753 0-6.182 2.429-6.182 6.182v8.727c0 3.753 2.429 6.182 6.182 6.182 0.596 0 1.091 0.495 1.091 1.091v3.098c0 0.189 0.116 0.276 0.189 0.32s0.218 0.087 0.378-0.015l6.473-4.305c0.175-0.116 0.393-0.189 0.611-0.189h5.818c3.753 0 6.182-2.429 6.182-6.182v-8.727c0-3.753-2.429-6.182-6.182-6.182h-14.56z"></path>
<path d="M16 16.16c-0.596 0-1.091-0.495-1.091-1.091v-0.305c0-1.687 1.236-2.516 1.702-2.836 0.538-0.364 0.713-0.611 0.713-0.989 0-0.727-0.596-1.324-1.324-1.324s-1.324 0.596-1.324 1.324c0 0.596-0.495 1.091-1.091 1.091s-1.091-0.495-1.091-1.091c0-1.935 1.571-3.505 3.505-3.505s3.505 1.571 3.505 3.505c0 1.658-1.222 2.487-1.673 2.793-0.567 0.378-0.742 0.625-0.742 1.033v0.305c0 0.611-0.495 1.091-1.091 1.091z"></path>
<path d="M16 19.782c-0.611 0-1.091-0.495-1.091-1.091s0.495-1.091 1.091-1.091c0.596 0 1.091 0.495 1.091 1.091s-0.48 1.091-1.091 1.091z"></path>
</svg>
