<!-- Generated by IcoMoon.io -->
<svg version="1.1" xmlns="http://www.w3.org/2000/svg" width="32" height="32" viewBox="0 0 32 32">
<path d="M3.047 3.047c1.941-1.941 4.846-2.683 8.59-2.683h8.727c3.744 0 6.649 0.742 8.59 2.683s2.683 4.846 2.683 8.59v8.727c0 3.744-0.742 6.649-2.683 8.59s-4.846 2.683-8.59 2.683h-8.727c-3.744 0-6.649-0.742-8.59-2.683s-2.683-4.846-2.683-8.59v-8.727c0-3.744 0.742-6.649 2.683-8.59zM4.59 4.59c-1.332 1.332-2.044 3.518-2.044 7.047v8.727c0 3.529 0.712 5.715 2.044 7.047s3.518 2.044 7.047 2.044h8.727c3.529 0 5.715-0.712 7.047-2.044s2.044-3.518 2.044-7.047v-8.727c0-3.529-0.712-5.715-2.044-7.047s-3.518-2.044-7.047-2.044h-8.727c-3.529 0-5.715 0.712-7.047 2.044z"></path>
<path d="M21.456 10.563c1.924 1.912 1.931 5.061-0.004 7.009-1.348 1.347-3.277 1.764-4.98 1.228-0.387-0.122-0.81-0.019-1.097 0.268l-3.767 3.753c-0.003 0.003-0.006 0.006-0.009 0.009-0.003 0.002-0.006 0.004-0.011 0.007-0.022 0.013-0.055 0.028-0.097 0.042s-0.082 0.022-0.114 0.026c-0.021 0.002-0.032 0.002-0.036 0.002l-1.766-0.235c0 0 0 0 0 0-0.004-0.001-0.063-0.016-0.139-0.093s-0.104-0.151-0.11-0.179l-0.23-1.728-0.001-0.006c0-0.004 0.001-0.011 0.002-0.020 0.004-0.029 0.012-0.070 0.028-0.117s0.035-0.088 0.053-0.121c0.011-0.019 0.018-0.030 0.022-0.035l3.732-3.732c0.286-0.286 0.39-0.706 0.271-1.092-0.527-1.713-0.117-3.643 1.227-4.988 1.929-1.929 5.080-1.932 7.027 0.002zM22.994 9.015c-2.795-2.778-7.324-2.781-10.108 0.002-1.772 1.772-2.41 4.242-1.937 6.519l-3.334 3.335c-0.267 0.282-0.45 0.637-0.558 0.961-0.107 0.317-0.183 0.724-0.122 1.135l0.232 1.737 0.003 0.022c0.084 0.544 0.362 1.026 0.711 1.381 0.348 0.354 0.839 0.654 1.419 0.728l1.735 0.231c0.401 0.057 0.804-0.006 1.136-0.115 0.326-0.107 0.697-0.295 0.986-0.594l3.317-3.304c2.285 0.485 4.755-0.171 6.523-1.94l0.002-0.002c2.777-2.794 2.783-7.324-0.005-10.095z"></path>
<path d="M11.742 20.199c0.428-0.424 1.119-0.419 1.543 0.009l1.236 1.251c0.424 0.428 0.419 1.119-0.009 1.543s-1.119 0.419-1.543-0.009l-1.236-1.251c-0.424-0.428-0.419-1.119 0.009-1.543z"></path>
<path d="M16.574 14.109c0-0.803 0.651-1.455 1.455-1.455h0.013c0.803 0 1.455 0.651 1.455 1.455s-0.651 1.455-1.455 1.455h-0.013c-0.803 0-1.455-0.651-1.455-1.455z"></path>
</svg>
