<!-- Generated by IcoMoon.io -->
<svg version="1.1" xmlns="http://www.w3.org/2000/svg" width="30" height="32" viewBox="0 0 30 32">
<path d="M15.031 31.891c-1.002 0-2.018-0.224-2.81-0.688l-8.222-4.739c-3.349-2.257-3.558-2.601-3.558-6.144v-8.641c0-3.543 0.194-3.887 3.483-6.114l8.282-4.784c1.57-0.912 4.036-0.912 5.606 0l8.252 4.754c3.349 2.257 3.558 2.601 3.558 6.144v8.626c0 3.543-0.194 3.887-3.483 6.114l-8.282 4.784c-0.807 0.463-1.824 0.688-2.825 0.688zM15.031 2.351c-0.628 0-1.241 0.12-1.674 0.374l-8.222 4.754c-2.437 1.644-2.437 1.644-2.437 4.201v8.626c0 2.556 0 2.556 2.497 4.246l8.162 4.709c0.882 0.508 2.482 0.508 3.364 0l8.222-4.754c2.422-1.645 2.422-1.645 2.422-4.201v-8.626c0-2.556 0-2.556-2.497-4.246l-8.162-4.709c-0.434-0.254-1.046-0.374-1.674-0.374z"></path>
<path d="M15.030 21.606c-3.095 0-5.606-2.511-5.606-5.606s2.512-5.606 5.606-5.606c3.095 0 5.606 2.511 5.606 5.606s-2.511 5.606-5.606 5.606zM15.030 12.636c-1.854 0-3.364 1.51-3.364 3.364s1.51 3.364 3.364 3.364c1.854 0 3.364-1.51 3.364-3.364s-1.51-3.364-3.364-3.364z"></path>
</svg>
