<!-- Generated by IcoMoon.io -->
<svg version="1.1" xmlns="http://www.w3.org/2000/svg" width="32" height="32" viewBox="0 0 32 32">
<path d="M14.4 3.2c-6.186 0-11.2 5.014-11.2 11.2s5.014 11.2 11.2 11.2c6.186 0 11.2-5.014 11.2-11.2s-5.014-11.2-11.2-11.2zM0 14.4c0-7.953 6.447-14.4 14.4-14.4s14.4 6.447 14.4 14.4c0 7.953-6.447 14.4-14.4 14.4s-14.4-6.447-14.4-14.4z"></path>
<path d="M22.309 22.309c0.625-0.625 1.638-0.625 2.263 0l6.96 6.96c0.625 0.625 0.625 1.638 0 2.263s-1.638 0.625-2.263 0l-6.96-6.96c-0.625-0.625-0.625-1.638 0-2.263z"></path>
</svg>
