<!-- Generated by IcoMoon.io -->
<svg version="1.1" xmlns="http://www.w3.org/2000/svg" width="32" height="32" viewBox="0 0 32 32">
<path d="M20.364 31.636h-8.727c-1.92 0-3.52-0.189-4.873-0.596-0.495-0.145-0.815-0.625-0.785-1.135 0.364-4.349 4.771-7.767 10.022-7.767s9.644 3.404 10.022 7.767c0.044 0.524-0.276 0.989-0.785 1.135-1.353 0.407-2.953 0.596-4.873 0.596zM8.321 29.178c0.96 0.189 2.051 0.276 3.316 0.276h8.727c1.265 0 2.356-0.087 3.316-0.276-0.771-2.793-3.956-4.858-7.68-4.858s-6.909 2.066-7.68 4.858z"></path>
<path d="M3.047 3.047c1.941-1.941 4.846-2.683 8.59-2.683h8.727c3.744 0 6.649 0.742 8.59 2.683s2.683 4.846 2.683 8.59v8.727c0 2.837-0.424 5.184-1.469 7-1.071 1.861-2.728 3.052-4.939 3.678-0.313 0.089-0.65 0.033-0.918-0.152s-0.439-0.481-0.466-0.805c-0.258-3.043-3.491-5.765-7.844-5.765s-7.586 2.721-7.844 5.765c-0.027 0.325-0.199 0.62-0.466 0.805s-0.604 0.241-0.918 0.152c-2.211-0.626-3.868-1.817-4.939-3.678-1.045-1.816-1.469-4.163-1.469-7v-8.727c0-3.744 0.742-6.649 2.683-8.59zM4.59 4.59c-1.332 1.332-2.044 3.518-2.044 7.047v8.727c0 2.661 0.405 4.569 1.178 5.912 0.572 0.994 1.379 1.739 2.509 2.256 1.083-3.792 5.197-6.393 9.767-6.393s8.684 2.602 9.767 6.393c1.13-0.517 1.937-1.262 2.509-2.256 0.773-1.344 1.178-3.251 1.178-5.912v-8.727c0-3.529-0.712-5.715-2.044-7.047s-3.518-2.044-7.047-2.044h-8.727c-3.529 0-5.715 0.712-7.047 2.044zM16 9.818c-2.277 0-4.116 1.839-4.116 4.116 0 2.281 1.843 4.131 4.116 4.131s4.116-1.849 4.116-4.131c0-2.277-1.839-4.116-4.116-4.116zM9.702 13.935c0-3.482 2.816-6.298 6.298-6.298s6.298 2.816 6.298 6.298c0 3.479-2.812 6.313-6.298 6.313s-6.298-2.834-6.298-6.313z"></path>
<path d="M16 20.247c-3.476 0-6.298-2.836-6.298-6.313s2.822-6.298 6.298-6.298c3.476 0 6.298 2.822 6.298 6.298s-2.822 6.313-6.298 6.313zM16 9.818c-2.269 0-4.116 1.847-4.116 4.116 0 2.284 1.847 4.131 4.116 4.131s4.116-1.847 4.116-4.131c0-2.269-1.847-4.116-4.116-4.116z"></path>
</svg>
