<?xml version="1.0" encoding="utf-8"?><svg xmlns="http://www.w3.org/2000/svg" xmlns:xlink="http://www.w3.org/1999/xlink"><symbol viewBox="0 0 19 32" id="arrow" xmlns="http://www.w3.org/2000/svg"><path d="M.937.937a3.2 3.2 0 0 1 4.526 0l12.8 12.8a3.199 3.199 0 0 1 0 4.525l-12.8 12.8a3.2 3.2 0 1 1-4.526-4.526l10.537-10.537L.937 5.462a3.2 3.2 0 0 1 0-4.526z"/></symbol><symbol viewBox="0 0 32 32" id="close" xmlns="http://www.w3.org/2000/svg"><path d="M31.219.781a2.667 2.667 0 0 1 0 3.771L4.552 31.219a2.667 2.667 0 0 1-3.771-3.771L27.448.781a2.667 2.667 0 0 1 3.771 0z"/><path d="M.781.781a2.667 2.667 0 0 1 3.771 0l26.667 26.667a2.667 2.667 0 0 1-3.771 3.771L.781 4.552a2.667 2.667 0 0 1 0-3.771z"/></symbol><symbol viewBox="0 0 32 32" id="cube" xmlns="http://www.w3.org/2000/svg"><path d="M20.364 31.636h-8.727C3.739 31.636.364 28.261.364 20.363v-8.727C.364 3.738 3.739.363 11.637.363h8.727c7.898 0 11.273 3.375 11.273 11.273v8.727c0 7.898-3.375 11.273-11.273 11.273zM11.636 2.545c-6.705 0-9.091 2.385-9.091 9.091v8.727c0 6.705 2.385 9.091 9.091 9.091h8.727c6.705 0 9.091-2.385 9.091-9.091v-8.727c0-6.705-2.385-9.091-9.091-9.091h-8.727z"/><path d="M16.001 17.57c-.189 0-.378-.044-.553-.145l-7.709-4.451a1.08 1.08 0 0 1-.393-1.484 1.08 1.08 0 0 1 1.484-.393l7.156 4.145 7.113-4.116c.524-.305 1.193-.116 1.484.393s.116 1.193-.393 1.484l-7.651 4.422c-.16.087-.349.145-.538.145z"/><path d="M16 25.484a1.1 1.1 0 0 1-1.091-1.091V16.48c0-.596.495-1.091 1.091-1.091s1.091.495 1.091 1.091v7.913A1.1 1.1 0 0 1 16 25.484z"/><path d="M16 25.818c-.844 0-1.673-.189-2.342-.553l-4.655-2.589c-1.396-.771-2.473-2.618-2.473-4.218v-4.931c0-1.585 1.091-3.433 2.473-4.218l4.655-2.589c1.338-.742 3.345-.742 4.684 0l4.655 2.589c1.396.771 2.473 2.618 2.473 4.218v4.931c0 1.585-1.091 3.433-2.473 4.218l-4.655 2.589c-.669.378-1.498.553-2.342.553zm0-17.455c-.48 0-.945.087-1.28.276l-4.654 2.589c-.713.393-1.353 1.498-1.353 2.298v4.931c0 .815.64 1.905 1.353 2.298l4.654 2.589c.669.378 1.891.378 2.56 0l4.655-2.589c.713-.393 1.353-1.498 1.353-2.298v-4.931c0-.815-.64-1.905-1.353-2.298L17.28 8.639c-.335-.189-.8-.276-1.28-.276z"/></symbol><symbol viewBox="0 0 32 32" id="discount" xmlns="http://www.w3.org/2000/svg"><path d="M16 31.637a3.344 3.344 0 0 1-2.415-1.003l-2.211-2.211c-.175-.175-.64-.364-.873-.364H7.359a3.414 3.414 0 0 1-3.418-3.418v-3.142c0-.233-.189-.698-.364-.873l-2.211-2.211C.726 17.775.362 16.917.362 16s.349-1.775 1.004-2.415l2.211-2.211c.175-.175.364-.64.364-.873V7.359a3.414 3.414 0 0 1 3.418-3.418h3.142c.233 0 .698-.189.873-.364l2.211-2.211c1.28-1.28 3.549-1.28 4.829 0l2.211 2.211c.175.175.64.364.873.364h3.142a3.414 3.414 0 0 1 3.418 3.418v3.142c0 .233.189.698.364.873l2.211 2.211c.64.64 1.004 1.498 1.004 2.415s-.349 1.775-1.004 2.415l-2.211 2.211c-.175.175-.364.64-.364.873v3.142a3.414 3.414 0 0 1-3.418 3.418h-3.142c-.233 0-.698.189-.873.364l-2.211 2.211a3.339 3.339 0 0 1-2.415 1.003zM5.12 19.084c.582.582 1.004 1.6 1.004 2.415v3.142c0 .684.553 1.236 1.236 1.236h3.142c.815 0 1.833.422 2.415 1.003l2.211 2.211c.465.465 1.28.465 1.745 0l2.211-2.211c.582-.582 1.6-1.003 2.415-1.003h3.142c.684 0 1.236-.553 1.236-1.236v-3.142c0-.815.422-1.833 1.004-2.415l2.211-2.211c.233-.233.364-.538.364-.873s-.131-.64-.364-.873l-2.211-2.211c-.582-.582-1.004-1.6-1.004-2.415V7.359c0-.684-.553-1.236-1.236-1.236h-3.142c-.815 0-1.833-.422-2.415-1.004l-2.211-2.211c-.465-.465-1.28-.465-1.745 0l-2.211 2.211c-.582.582-1.6 1.004-2.415 1.004H7.36c-.684 0-1.236.553-1.236 1.236v3.142c0 .815-.422 1.833-1.004 2.415l-2.211 2.211c-.233.233-.364.538-.364.873s.131.64.364.873l2.211 2.211z"/><path d="M20.364 21.818c-.815 0-1.469-.655-1.469-1.455s.655-1.455 1.455-1.455 1.455.655 1.455 1.455-.64 1.455-1.44 1.455zm-8.713-8.727c-.815 0-1.469-.655-1.469-1.455s.655-1.455 1.455-1.455 1.455.655 1.455 1.455-.64 1.455-1.44 1.455zm-.015 8.363a1.08 1.08 0 0 1-.771-.32 1.097 1.097 0 0 1 0-1.542l8.727-8.727c.422-.422 1.12-.422 1.542 0s.422 1.12 0 1.542l-8.727 8.727a1.08 1.08 0 0 1-.771.32z"/></symbol><symbol viewBox="0 0 32 32" id="help" xmlns="http://www.w3.org/2000/svg"><path d="M10.182 31.011c-.407 0-.829-.102-1.207-.305a2.531 2.531 0 0 1-1.338-2.24v-2.065C3.244 25.95.364 22.721.364 18.095V9.368c0-5.004 3.36-8.364 8.364-8.364h14.545c5.004 0 8.364 3.36 8.364 8.364v8.727c0 5.004-3.36 8.364-8.364 8.364h-5.484l-6.196 4.131a2.587 2.587 0 0 1-1.411.422zM8.727 3.171c-3.753 0-6.182 2.429-6.182 6.182v8.727c0 3.753 2.429 6.182 6.182 6.182a1.1 1.1 0 0 1 1.091 1.091v3.098c0 .189.116.276.189.32s.218.087.378-.015l6.473-4.305c.175-.116.393-.189.611-.189h5.818c3.753 0 6.182-2.429 6.182-6.182V9.353c0-3.753-2.429-6.182-6.182-6.182H8.727z"/><path d="M16 16.16a1.1 1.1 0 0 1-1.091-1.091v-.305c0-1.687 1.236-2.516 1.702-2.836.538-.364.713-.611.713-.989 0-.727-.596-1.324-1.324-1.324s-1.324.596-1.324 1.324c0 .596-.495 1.091-1.091 1.091s-1.091-.495-1.091-1.091c0-1.935 1.571-3.505 3.505-3.505s3.505 1.571 3.505 3.505c0 1.658-1.222 2.487-1.673 2.793-.567.378-.742.625-.742 1.033v.305a1.09 1.09 0 0 1-1.091 1.091zm0 3.622a1.09 1.09 0 1 1-.002-2.18 1.09 1.09 0 0 1 .002 2.18z"/></symbol><symbol viewBox="0 0 32 32" id="key" xmlns="http://www.w3.org/2000/svg"><path d="M3.047 3.047C4.988 1.106 7.893.364 11.637.364h8.727c3.744 0 6.649.742 8.59 2.683s2.683 4.846 2.683 8.59v8.727c0 3.744-.742 6.649-2.683 8.59s-4.846 2.683-8.59 2.683h-8.727c-3.744 0-6.649-.742-8.59-2.683S.364 24.108.364 20.364v-8.727c0-3.744.742-6.649 2.683-8.59zM4.59 4.59c-1.332 1.332-2.044 3.518-2.044 7.047v8.727c0 3.529.712 5.715 2.044 7.047s3.518 2.044 7.047 2.044h8.727c3.529 0 5.715-.712 7.047-2.044s2.044-3.518 2.044-7.047v-8.727c0-3.529-.712-5.715-2.044-7.047s-3.518-2.044-7.047-2.044h-8.727c-3.529 0-5.715.712-7.047 2.044z"/><path d="M21.456 10.563c1.924 1.912 1.931 5.061-.004 7.009a4.941 4.941 0 0 1-4.98 1.228 1.089 1.089 0 0 0-1.097.268l-3.767 3.753-.009.009-.011.007a.603.603 0 0 1-.211.068l-.036.002-1.766-.235c-.004-.001-.063-.016-.139-.093s-.104-.151-.11-.179l-.23-1.728-.001-.006.002-.02a.779.779 0 0 1 .103-.273l3.732-3.732a1.09 1.09 0 0 0 .271-1.092 4.974 4.974 0 0 1 1.227-4.988c1.929-1.929 5.08-1.932 7.027.002zm1.538-1.548c-2.795-2.778-7.324-2.781-10.108.002a7.144 7.144 0 0 0-1.937 6.519l-3.334 3.335c-.267.282-.45.637-.558.961a2.48 2.48 0 0 0-.122 1.135l.232 1.737.003.022c.084.544.362 1.026.711 1.381.348.354.839.654 1.419.728l1.735.231c.401.057.804-.006 1.136-.115.326-.107.697-.295.986-.594l3.317-3.304a7.12 7.12 0 0 0 6.523-1.94l.002-.002c2.777-2.794 2.783-7.324-.005-10.095z"/><path d="M11.742 20.199a1.091 1.091 0 0 1 1.543.009l1.236 1.251a1.091 1.091 0 0 1-1.552 1.534l-1.236-1.251a1.091 1.091 0 0 1 .009-1.543zm4.832-6.09c0-.803.651-1.455 1.455-1.455h.013a1.455 1.455 0 0 1 0 2.91h-.013a1.455 1.455 0 0 1-1.455-1.455z"/></symbol><symbol viewBox="0 0 30 32" id="logo" xmlns="http://www.w3.org/2000/svg"><path d="M15.031 31.891c-1.002 0-2.018-.224-2.81-.688l-8.222-4.739C.65 24.207.441 23.863.441 20.32v-8.641c0-3.543.194-3.887 3.483-6.114L12.206.781c1.57-.912 4.036-.912 5.606 0l8.252 4.754c3.349 2.257 3.558 2.601 3.558 6.144v8.626c0 3.543-.194 3.887-3.483 6.114l-8.282 4.784c-.807.463-1.824.688-2.825.688zm0-29.54c-.628 0-1.241.12-1.674.374L5.135 7.479C2.698 9.123 2.698 9.123 2.698 11.68v8.626c0 2.556 0 2.556 2.497 4.246l8.162 4.709c.882.508 2.482.508 3.364 0l8.222-4.754c2.422-1.645 2.422-1.645 2.422-4.201V11.68c0-2.556 0-2.556-2.497-4.246l-8.162-4.709c-.434-.254-1.046-.374-1.674-.374z"/><path d="M15.03 21.606c-3.095 0-5.606-2.511-5.606-5.606s2.512-5.606 5.606-5.606c3.095 0 5.606 2.511 5.606 5.606s-2.511 5.606-5.606 5.606zm0-8.97c-1.854 0-3.364 1.51-3.364 3.364s1.51 3.364 3.364 3.364c1.854 0 3.364-1.51 3.364-3.364s-1.51-3.364-3.364-3.364z"/></symbol><symbol viewBox="0 0 104 32" id="menu" xmlns="http://www.w3.org/2000/svg"><path d="M0 25.333a4 4 0 0 1 4-4h96a4 4 0 0 1 0 8H4a4 4 0 0 1-4-4zM0 4a4 4 0 0 1 4-4h96a4 4 0 0 1 0 8H4a4 4 0 0 1-4-4z"/></symbol><symbol viewBox="0 0 32 32" id="search" xmlns="http://www.w3.org/2000/svg"><path d="M14.4 3.2C8.214 3.2 3.2 8.214 3.2 14.4s5.014 11.2 11.2 11.2c6.186 0 11.2-5.014 11.2-11.2S20.586 3.2 14.4 3.2zM0 14.4C0 6.447 6.447 0 14.4 0s14.4 6.447 14.4 14.4-6.447 14.4-14.4 14.4S0 22.353 0 14.4z"/><path d="M22.309 22.309a1.6 1.6 0 0 1 2.263 0l6.96 6.96a1.6 1.6 0 1 1-2.263 2.263l-6.96-6.96a1.6 1.6 0 0 1 0-2.263z"/></symbol><symbol viewBox="0 0 32 32" id="user" xmlns="http://www.w3.org/2000/svg"><path d="M20.364 31.636h-8.727c-1.92 0-3.52-.189-4.873-.596a1.113 1.113 0 0 1-.785-1.135c.364-4.349 4.771-7.767 10.022-7.767s9.644 3.404 10.022 7.767c.044.524-.276.989-.785 1.135-1.353.407-2.953.596-4.873.596zM8.321 29.178c.96.189 2.051.276 3.316.276h8.727c1.265 0 2.356-.087 3.316-.276-.771-2.793-3.956-4.858-7.68-4.858s-6.909 2.066-7.68 4.858z"/><path d="M3.047 3.047C4.988 1.106 7.893.364 11.637.364h8.727c3.744 0 6.649.742 8.59 2.683s2.683 4.846 2.683 8.59v8.727c0 2.837-.424 5.184-1.469 7-1.071 1.861-2.728 3.052-4.939 3.678a1.091 1.091 0 0 1-1.384-.957c-.258-3.043-3.491-5.765-7.844-5.765s-7.586 2.721-7.844 5.765a1.09 1.09 0 0 1-1.384.957c-2.211-.626-3.868-1.817-4.939-3.678-1.045-1.816-1.469-4.163-1.469-7v-8.727c0-3.744.742-6.649 2.683-8.59zM4.59 4.59c-1.332 1.332-2.044 3.518-2.044 7.047v8.727c0 2.661.405 4.569 1.178 5.912.572.994 1.379 1.739 2.509 2.256C7.316 24.74 11.43 22.139 16 22.139s8.684 2.602 9.767 6.393c1.13-.517 1.937-1.262 2.509-2.256.773-1.344 1.178-3.251 1.178-5.912v-8.727c0-3.529-.712-5.715-2.044-7.047s-3.518-2.044-7.047-2.044h-8.727c-3.529 0-5.715.712-7.047 2.044zM16 9.818a4.111 4.111 0 0 0-4.116 4.116c0 2.281 1.843 4.131 4.116 4.131s4.116-1.849 4.116-4.131A4.111 4.111 0 0 0 16 9.818zm-6.298 4.117c0-3.482 2.816-6.298 6.298-6.298s6.298 2.816 6.298 6.298c0 3.479-2.812 6.313-6.298 6.313s-6.298-2.834-6.298-6.313z"/><path d="M16 20.247c-3.476 0-6.298-2.836-6.298-6.313S12.524 7.636 16 7.636s6.298 2.822 6.298 6.298-2.822 6.313-6.298 6.313zm0-10.429a4.125 4.125 0 0 0 0 8.247 4.125 4.125 0 0 0 0-8.247z"/></symbol><symbol viewBox="0 0 34 32" id="wallet" xmlns="http://www.w3.org/2000/svg"><path d="M3.964 21.502c.631 0 1.143.512 1.143 1.143 0 1.769 1.68 3.337 4.312 3.337 2.612 0 4.297-1.58 4.297-3.337a1.143 1.143 0 0 1 2.286 0v3.093c0 3.396-3.104 5.882-6.583 5.882-3.475 0-6.598-2.482-6.598-5.882v-3.093c0-.631.512-1.143 1.143-1.143zm1.53 5.707c.656 1.206 2.095 2.125 3.926 2.125 1.832 0 3.267-.921 3.917-2.131-1.127.689-2.505 1.065-3.917 1.065-1.416 0-2.797-.373-3.926-1.058z"/><path d="M9.387 14.872c-1.247 0-2.331.427-3.102 1.103l-.001.001c-.762.667-1.194 1.54-1.194 2.477 0 .54.149 1.038.413 1.479.651 1.055 2.08 1.858 3.899 1.858 1.826 0 3.25-.793 3.898-1.856.265-.442.414-.941.414-1.481 0-.94-.434-1.817-1.204-2.459l-.014-.012c-.78-.672-1.87-1.11-3.109-1.11zm-4.609-.615c1.21-1.061 2.839-1.67 4.609-1.67 1.775 0 3.394.626 4.594 1.658C15.218 15.279 16 16.777 16 18.454c0 .982-.276 1.884-.742 2.66l-.004.006c-1.151 1.892-3.414 2.956-5.853 2.956-2.445 0-4.702-1.084-5.85-2.952l-.006-.01a5.137 5.137 0 0 1-.742-2.66c0-1.683.786-3.157 1.975-4.197l-.001.001z"/><path d="M9.42 14.857c-2.542 0-4.312 1.752-4.312 3.596v4.19c0 1.754 1.696 3.337 4.312 3.337 2.615 0 4.297-1.567 4.297-3.337v-4.19c0-.94-.435-1.826-1.191-2.489-.78-.67-1.869-1.107-3.106-1.107zm-6.599 3.596c0-3.398 3.106-5.882 6.598-5.882 1.778 0 3.4.629 4.601 1.664l.007.006c1.192 1.043 1.975 2.533 1.975 4.212v4.19c0 3.472-3.194 5.623-6.583 5.623-3.387 0-6.598-2.165-6.598-5.623v-4.19zm24.486-5.196c-.547 0-1.029.212-1.376.569l-.021.021a1.92 1.92 0 0 0-.575 1.558l.001.013c.081.968 1.011 1.802 2.152 1.802h2.961a.42.42 0 0 0 .407-.411V13.67a.42.42 0 0 0-.407-.411h-3.143zm-3.003-1.036a4.182 4.182 0 0 1 3.003-1.249h3.17l.041.001c1.452.052 2.626 1.227 2.626 2.696v3.139c0 1.469-1.174 2.644-2.626 2.696l-.041.001H27.49c-2.148 0-4.233-1.571-4.43-3.891a4.202 4.202 0 0 1 1.244-3.393z"/><path d="M9.143 3.429c-.372 0-.725.027-1.06.078l-.031.004c-1.687.212-3.014.934-3.922 2-.911 1.068-1.462 2.554-1.462 4.394v3.048a1.143 1.143 0 0 1-2.286 0V9.905c0-2.305.698-4.339 2.008-5.877s3.17-2.505 5.361-2.783a9.224 9.224 0 0 1 1.392-.102h13.714c.411 0 .855.015 1.302.087 2.21.263 4.091 1.225 5.418 2.763 1.33 1.542 2.041 3.589 2.041 5.912v2.21c0 .631-.512 1.143-1.143 1.143h-3.17c-.547 0-1.028.212-1.375.569l-.021.021a1.92 1.92 0 0 0-.575 1.558l.001.013c.081.968 1.011 1.802 2.153 1.802h2.987c.631 0 1.143.512 1.143 1.143v2.21c0 2.545-.854 4.755-2.43 6.332s-3.787 2.43-6.332 2.43h-3.81a1.143 1.143 0 0 1 0-2.286h3.81c2.026 0 3.626-.67 4.716-1.76s1.76-2.69 1.76-4.716v-1.067h-1.844c-2.148 0-4.233-1.571-4.43-3.891a4.202 4.202 0 0 1 1.244-3.393 4.18 4.18 0 0 1 3.003-1.249h2.027V9.907c0-1.852-.561-3.347-1.486-4.419-.923-1.069-2.27-1.79-3.979-1.989l-.056-.008a5.823 5.823 0 0 0-.955-.061H9.142z"/></symbol></svg>