<svg xmlns="http://www.w3.org/2000/svg" width="32" height="32"><path d="M10.182 31.011c-.407 0-.829-.102-1.207-.305a2.531 2.531 0 01-1.338-2.24v-2.065C3.244 25.95.364 22.721.364 18.095V9.368c0-5.004 3.36-8.364 8.364-8.364h14.545c5.004 0 8.364 3.36 8.364 8.364v8.727c0 5.004-3.36 8.364-8.364 8.364h-5.484l-6.196 4.131a2.587 2.587 0 01-1.411.422zM8.727 3.171c-3.753 0-6.182 2.429-6.182 6.182v8.727c0 3.753 2.429 6.182 6.182 6.182a1.1 1.1 0 011.091 1.091v3.098c0 .189.116.276.189.32s.218.087.378-.015l6.473-4.305c.175-.116.393-.189.611-.189h5.818c3.753 0 6.182-2.429 6.182-6.182V9.353c0-3.753-2.429-6.182-6.182-6.182H8.727z"/><path d="M16 16.16a1.1 1.1 0 01-1.091-1.091v-.305c0-1.687 1.236-2.516 1.702-2.836.538-.364.713-.611.713-.989 0-.727-.596-1.324-1.324-1.324s-1.324.596-1.324 1.324c0 .596-.495 1.091-1.091 1.091s-1.091-.495-1.091-1.091c0-1.935 1.571-3.505 3.505-3.505s3.505 1.571 3.505 3.505c0 1.658-1.222 2.487-1.673 2.793-.567.378-.742.625-.742 1.033v.305a1.09 1.09 0 01-1.091 1.091zm0 3.622a1.09 1.09 0 11-.002-2.18 1.09 1.09 0 01.002 2.18z"/></svg>