<!-- Generated by IcoMoon.io -->
<svg version="1.1" xmlns="http://www.w3.org/2000/svg" width="32" height="32" viewBox="0 0 32 32">
<path d="M16 31.637c-0.916 0-1.775-0.349-2.415-1.003l-2.211-2.211c-0.175-0.175-0.64-0.364-0.873-0.364h-3.142c-1.891 0-3.418-1.527-3.418-3.418v-3.142c0-0.233-0.189-0.698-0.364-0.873l-2.211-2.211c-0.64-0.64-1.004-1.498-1.004-2.415s0.349-1.775 1.004-2.415l2.211-2.211c0.175-0.175 0.364-0.64 0.364-0.873v-3.142c0-1.891 1.527-3.418 3.418-3.418h3.142c0.233 0 0.698-0.189 0.873-0.364l2.211-2.211c1.28-1.28 3.549-1.28 4.829 0l2.211 2.211c0.175 0.175 0.64 0.364 0.873 0.364h3.142c1.891 0 3.418 1.527 3.418 3.418v3.142c0 0.233 0.189 0.698 0.364 0.873l2.211 2.211c0.64 0.64 1.004 1.498 1.004 2.415s-0.349 1.775-1.004 2.415l-2.211 2.211c-0.175 0.175-0.364 0.64-0.364 0.873v3.142c0 1.891-1.527 3.418-3.418 3.418h-3.142c-0.233 0-0.698 0.189-0.873 0.364l-2.211 2.211c-0.64 0.655-1.498 1.003-2.415 1.003zM5.12 19.084c0.582 0.582 1.004 1.6 1.004 2.415v3.142c0 0.684 0.553 1.236 1.236 1.236h3.142c0.815 0 1.833 0.422 2.415 1.003l2.211 2.211c0.465 0.465 1.28 0.465 1.745 0l2.211-2.211c0.582-0.582 1.6-1.003 2.415-1.003h3.142c0.684 0 1.236-0.553 1.236-1.236v-3.142c0-0.815 0.422-1.833 1.004-2.415l2.211-2.211c0.233-0.233 0.364-0.538 0.364-0.873s-0.131-0.64-0.364-0.873l-2.211-2.211c-0.582-0.582-1.004-1.6-1.004-2.415v-3.142c0-0.684-0.553-1.236-1.236-1.236h-3.142c-0.815 0-1.833-0.422-2.415-1.004l-2.211-2.211c-0.465-0.465-1.28-0.465-1.745 0l-2.211 2.211c-0.582 0.582-1.6 1.004-2.415 1.004h-3.142c-0.684 0-1.236 0.553-1.236 1.236v3.142c0 0.815-0.422 1.833-1.004 2.415l-2.211 2.211c-0.233 0.233-0.364 0.538-0.364 0.873s0.131 0.64 0.364 0.873l2.211 2.211z"></path>
<path d="M20.364 21.818c-0.815 0-1.469-0.655-1.469-1.455s0.655-1.455 1.455-1.455c0.8 0 1.455 0.655 1.455 1.455s-0.64 1.455-1.44 1.455z"></path>
<path d="M11.651 13.091c-0.815 0-1.469-0.655-1.469-1.455s0.655-1.455 1.455-1.455c0.8 0 1.455 0.655 1.455 1.455s-0.64 1.455-1.44 1.455z"></path>
<path d="M11.636 21.454c-0.276 0-0.553-0.102-0.771-0.32-0.422-0.422-0.422-1.12 0-1.542l8.727-8.727c0.422-0.422 1.12-0.422 1.542 0s0.422 1.12 0 1.542l-8.727 8.727c-0.218 0.218-0.495 0.32-0.771 0.32z"></path>
</svg>
