<!-- Generated by IcoMoon.io -->
<svg version="1.1" xmlns="http://www.w3.org/2000/svg" width="34" height="32" viewBox="0 0 34 32">
<path d="M3.964 21.502c0.631 0 1.143 0.512 1.143 1.143 0 1.769 1.68 3.337 4.312 3.337 2.612 0 4.297-1.58 4.297-3.337 0-0.631 0.512-1.143 1.143-1.143s1.143 0.512 1.143 1.143v3.093c0 3.396-3.104 5.882-6.583 5.882-3.475 0-6.598-2.482-6.598-5.882v-3.093c0-0.631 0.512-1.143 1.143-1.143zM5.494 27.209c0.656 1.206 2.095 2.125 3.926 2.125 1.832 0 3.267-0.921 3.917-2.131-1.127 0.689-2.505 1.065-3.917 1.065-1.416 0-2.797-0.373-3.926-1.058z"></path>
<path d="M9.387 14.872c-1.247 0-2.331 0.427-3.102 1.103l-0.001 0.001c-0.762 0.667-1.194 1.54-1.194 2.477 0 0.54 0.149 1.038 0.413 1.479 0.651 1.055 2.080 1.858 3.899 1.858 1.826 0 3.25-0.793 3.898-1.856 0.265-0.442 0.414-0.941 0.414-1.481 0-0.94-0.434-1.817-1.204-2.459l-0.014-0.012 0-0c-0.78-0.672-1.87-1.11-3.109-1.11zM4.778 14.257c1.21-1.061 2.839-1.67 4.609-1.67 1.775 0 3.394 0.626 4.594 1.658 1.237 1.034 2.019 2.532 2.019 4.209 0 0.982-0.276 1.884-0.742 2.66l-0.004 0.006c-1.151 1.892-3.414 2.956-5.853 2.956-2.445 0-4.702-1.084-5.85-2.952l-0.006-0.010h0c-0.466-0.776-0.742-1.679-0.742-2.66 0-1.683 0.786-3.157 1.975-4.197l-0.001 0.001z"></path>
<path d="M9.42 14.857c-2.542 0-4.312 1.752-4.312 3.596v4.19c0 1.754 1.696 3.337 4.312 3.337 2.615 0 4.297-1.567 4.297-3.337v-4.19c0-0.94-0.435-1.826-1.191-2.489-0.78-0.67-1.869-1.107-3.106-1.107zM2.821 18.453c0-3.398 3.106-5.882 6.598-5.882 1.778 0 3.4 0.629 4.601 1.664l0.007 0.006-0 0c1.192 1.043 1.975 2.533 1.975 4.212v4.19c0 3.472-3.194 5.623-6.583 5.623-3.387 0-6.598-2.165-6.598-5.623v-4.19z"></path>
<path d="M27.307 13.257c-0.547 0-1.029 0.212-1.376 0.569l-0.021 0.021c-0.405 0.396-0.632 0.959-0.575 1.558l0.001 0.013h-0c0.081 0.968 1.011 1.802 2.152 1.802h2.961c0.246-0.016 0.407-0.208 0.407-0.411v-3.139c0-0.203-0.161-0.395-0.407-0.411h-3.143zM24.304 12.221c0.78-0.795 1.849-1.249 3.003-1.249h3.17c0.014 0 0.027 0 0.041 0.001 1.452 0.052 2.626 1.227 2.626 2.696v3.139c0 1.469-1.174 2.644-2.626 2.696-0.014 0-0.027 0.001-0.041 0.001h-2.987c-2.148 0-4.233-1.571-4.43-3.891-0.123-1.314 0.377-2.541 1.244-3.393z"></path>
<path d="M9.143 3.429c-0.372 0-0.725 0.027-1.060 0.078l-0.031 0.004c-1.687 0.212-3.014 0.934-3.922 2-0.911 1.068-1.462 2.554-1.462 4.394v3.048c0 0.631-0.512 1.143-1.143 1.143s-1.143-0.512-1.143-1.143v-3.048c0-2.305 0.698-4.339 2.008-5.877s3.17-2.505 5.361-2.783c0.452-0.069 0.917-0.102 1.392-0.102h13.714c0.411 0 0.855 0.015 1.302 0.087 2.21 0.263 4.091 1.225 5.418 2.763 1.33 1.542 2.041 3.589 2.041 5.912v2.21c0 0.631-0.512 1.143-1.143 1.143h-3.17c-0.547 0-1.028 0.212-1.375 0.569l-0.021 0.021c-0.405 0.396-0.632 0.959-0.575 1.558l0.001 0.013h-0c0.081 0.968 1.011 1.802 2.153 1.802h2.987c0.631 0 1.143 0.512 1.143 1.143v2.21c0 2.545-0.854 4.755-2.43 6.332s-3.787 2.43-6.332 2.43h-3.81c-0.631 0-1.143-0.512-1.143-1.143s0.512-1.143 1.143-1.143h3.81c2.026 0 3.626-0.67 4.716-1.76s1.76-2.69 1.76-4.716v-1.067h-1.844c-2.148 0-4.233-1.571-4.43-3.891-0.123-1.314 0.377-2.541 1.244-3.393 0.78-0.795 1.848-1.249 3.003-1.249h2.027v-1.067c0-1.852-0.561-3.347-1.486-4.419-0.923-1.069-2.27-1.79-3.979-1.989-0.019-0.002-0.037-0.005-0.056-0.008-0.274-0.046-0.582-0.061-0.955-0.061h-13.714z"></path>
</svg>
