<svg xmlns="http://www.w3.org/2000/svg" width="32" height="32"><path d="M20.364 31.636h-8.727C3.739 31.636.364 28.261.364 20.363v-8.727C.364 3.738 3.739.363 11.637.363h8.727c7.898 0 11.273 3.375 11.273 11.273v8.727c0 7.898-3.375 11.273-11.273 11.273zM11.636 2.545c-6.705 0-9.091 2.385-9.091 9.091v8.727c0 6.705 2.385 9.091 9.091 9.091h8.727c6.705 0 9.091-2.385 9.091-9.091v-8.727c0-6.705-2.385-9.091-9.091-9.091h-8.727z"/><path d="M16.001 17.57c-.189 0-.378-.044-.553-.145l-7.709-4.451a1.08 1.08 0 01-.393-1.484 1.08 1.08 0 011.484-.393l7.156 4.145 7.113-4.116c.524-.305 1.193-.116 1.484.393s.116 1.193-.393 1.484l-7.651 4.422c-.16.087-.349.145-.538.145z"/><path d="M16 25.484a1.1 1.1 0 01-1.091-1.091V16.48c0-.596.495-1.091 1.091-1.091s1.091.495 1.091 1.091v7.913A1.1 1.1 0 0116 25.484z"/><path d="M16 25.818c-.844 0-1.673-.189-2.342-.553l-4.655-2.589c-1.396-.771-2.473-2.618-2.473-4.218v-4.931c0-1.585 1.091-3.433 2.473-4.218l4.655-2.589c1.338-.742 3.345-.742 4.684 0l4.655 2.589c1.396.771 2.473 2.618 2.473 4.218v4.931c0 1.585-1.091 3.433-2.473 4.218l-4.655 2.589c-.669.378-1.498.553-2.342.553zm0-17.455c-.48 0-.945.087-1.28.276l-4.654 2.589c-.713.393-1.353 1.498-1.353 2.298v4.931c0 .815.64 1.905 1.353 2.298l4.654 2.589c.669.378 1.891.378 2.56 0l4.655-2.589c.713-.393 1.353-1.498 1.353-2.298v-4.931c0-.815-.64-1.905-1.353-2.298L17.28 8.639c-.335-.189-.8-.276-1.28-.276z"/></svg>